<svg width="163" height="36" viewBox="0 0 163 36" fill="none" xmlns="http://www.w3.org/2000/svg">
<path d="M162.707 19.7071C163.098 19.3166 163.098 18.6834 162.707 18.2929L156.343 11.9289C155.953 11.5384 155.319 11.5384 154.929 11.9289C154.538 12.3195 154.538 12.9526 154.929 13.3431L160.586 19L154.929 24.6569C154.538 25.0474 154.538 25.6805 154.929 26.0711C155.319 26.4616 155.953 26.4616 156.343 26.0711L162.707 19.7071ZM137 20L162 20L162 18L137 18L137 20Z" fill="#899D9D"/>
<path d="M0.292892 18.2929C-0.0976315 18.6834 -0.0976315 19.3166 0.292892 19.7071L6.65685 26.0711C7.04738 26.4616 7.68054 26.4616 8.07107 26.0711C8.46159 25.6805 8.46159 25.0474 8.07107 24.6569L2.41421 19L8.07107 13.3431C8.46159 12.9526 8.46159 12.3195 8.07107 11.9289C7.68054 11.5384 7.04738 11.5384 6.65685 11.9289L0.292892 18.2929ZM26 18L1 18V20L26 20V18Z" fill="#899D9D"/>
<path d="M56.984 26C56.936 26 56.912 25.952 56.912 25.856C56.912 25.76 56.936 25.712 56.984 25.712C57.608 25.712 58.064 25.672 58.352 25.592C58.656 25.512 58.864 25.36 58.976 25.136C59.088 24.896 59.144 24.536 59.144 24.056V19.832C59.144 19.32 59.088 18.96 58.976 18.752C58.88 18.528 58.696 18.416 58.424 18.416C58.168 18.416 57.656 18.568 56.888 18.872H56.864C56.816 18.872 56.776 18.832 56.744 18.752C56.712 18.672 56.728 18.616 56.792 18.584L61.16 16.52C61.176 16.504 61.2 16.496 61.232 16.496C61.28 16.496 61.32 16.52 61.352 16.568C61.384 16.6 61.4 16.64 61.4 16.688V24.056C61.4 24.552 61.448 24.912 61.544 25.136C61.64 25.36 61.832 25.512 62.12 25.592C62.408 25.672 62.864 25.712 63.488 25.712C63.536 25.712 63.56 25.76 63.56 25.856C63.56 25.952 63.536 26 63.488 26C62.912 26 62.464 25.992 62.144 25.976L60.248 25.952L58.352 25.976C58.016 25.992 57.56 26 56.984 26ZM81.6658 25.712C81.6978 25.712 81.7137 25.76 81.7137 25.856C81.7137 25.952 81.6978 26 81.6658 26C81.2178 26 80.8738 25.992 80.6338 25.976L79.2898 25.952L77.8738 25.976C77.6178 25.992 77.2658 26 76.8178 26C76.7698 26 76.7458 25.952 76.7458 25.856C76.7458 25.76 76.7698 25.712 76.8178 25.712C77.2018 25.712 77.4818 25.672 77.6578 25.592C77.8498 25.512 77.9778 25.36 78.0418 25.136C78.1058 24.896 78.1378 24.536 78.1378 24.056V19.664L73.9138 23.912V24.056C73.9138 24.536 73.9458 24.896 74.0098 25.136C74.0738 25.36 74.1938 25.512 74.3698 25.592C74.5458 25.672 74.8258 25.712 75.2098 25.712C75.2418 25.712 75.2578 25.76 75.2578 25.856C75.2578 25.952 75.2418 26 75.2098 26C74.7618 26 74.4178 25.992 74.1778 25.976L72.8338 25.952L71.4418 25.976C71.1858 25.992 70.8258 26 70.3618 26C70.3138 26 70.2898 25.952 70.2898 25.856C70.2898 25.76 70.3138 25.712 70.3618 25.712C70.7458 25.712 71.0258 25.672 71.2018 25.592C71.3938 25.512 71.5218 25.36 71.5858 25.136C71.6498 24.896 71.6818 24.536 71.6818 24.056V18.68C71.6818 18.2 71.6498 17.848 71.5858 17.624C71.5218 17.384 71.3938 17.224 71.2018 17.144C71.0258 17.064 70.7538 17.024 70.3857 17.024C70.3378 17.024 70.3138 16.976 70.3138 16.88C70.3138 16.784 70.3378 16.736 70.3857 16.736C70.8338 16.736 71.1778 16.744 71.4178 16.76L72.8338 16.784L74.1778 16.76C74.4338 16.744 74.7778 16.736 75.2098 16.736C75.2418 16.736 75.2578 16.784 75.2578 16.88C75.2578 16.976 75.2418 17.024 75.2098 17.024C74.8418 17.024 74.5618 17.072 74.3698 17.168C74.1938 17.264 74.0738 17.432 74.0098 17.672C73.9458 17.896 73.9138 18.248 73.9138 18.728V23.048L78.1378 18.824V18.68C78.1378 18.2 78.1058 17.848 78.0418 17.624C77.9778 17.384 77.8498 17.224 77.6578 17.144C77.4818 17.064 77.2098 17.024 76.8418 17.024C76.7938 17.024 76.7698 16.976 76.7698 16.88C76.7698 16.784 76.7938 16.736 76.8418 16.736C77.2898 16.736 77.6338 16.744 77.8738 16.76L79.2898 16.784L80.6338 16.76C80.8898 16.744 81.2338 16.736 81.6658 16.736C81.6978 16.736 81.7137 16.784 81.7137 16.88C81.7137 16.976 81.6978 17.024 81.6658 17.024C81.2978 17.024 81.0178 17.072 80.8258 17.168C80.6498 17.264 80.5298 17.432 80.4658 17.672C80.4018 17.896 80.3698 18.248 80.3698 18.728V24.056C80.3698 24.536 80.4018 24.896 80.4658 25.136C80.5298 25.36 80.6498 25.512 80.8258 25.592C81.0018 25.672 81.2818 25.712 81.6658 25.712ZM87.9335 20.816C88.9415 20.88 89.7255 21.16 90.2855 21.656C90.8615 22.136 91.1495 22.768 91.1495 23.552C91.1495 24.432 90.7575 25.112 89.9735 25.592C89.1895 26.056 88.1655 26.288 86.9015 26.288C85.6055 26.288 84.6135 26.104 83.9255 25.736C83.8135 25.688 83.7415 25.64 83.7095 25.592C83.6775 25.544 83.6535 25.456 83.6375 25.328L83.4455 23.048C83.4455 23 83.4855 22.968 83.5655 22.952C83.6455 22.936 83.7015 22.96 83.7335 23.024C84.0695 23.872 84.5095 24.544 85.0535 25.04C85.5975 25.536 86.2295 25.784 86.9495 25.784C87.4775 25.784 87.8775 25.6 88.1495 25.232C88.4215 24.848 88.5575 24.32 88.5575 23.648C88.5575 22.816 88.3415 22.184 87.9095 21.752C87.4935 21.304 86.8055 21.08 85.8455 21.08C85.7815 21.08 85.7415 21.04 85.7255 20.96C85.7095 20.864 85.7495 20.816 85.8455 20.816C86.7095 20.816 87.3175 20.656 87.6695 20.336C88.0375 20.016 88.2215 19.512 88.2215 18.824C88.2215 18.248 88.1015 17.792 87.8615 17.456C87.6215 17.104 87.2855 16.928 86.8535 16.928C86.3255 16.928 85.8295 17.16 85.3655 17.624C84.9175 18.072 84.4775 18.696 84.0455 19.496C84.0295 19.512 83.9895 19.52 83.9255 19.52C83.7975 19.52 83.7415 19.488 83.7575 19.424L84.2855 16.232C84.2855 16.2 84.3175 16.184 84.3815 16.184C84.4295 16.184 84.4775 16.2 84.5255 16.232C84.5735 16.248 84.5895 16.264 84.5735 16.28C84.5575 16.344 84.5495 16.424 84.5495 16.52C84.5495 16.792 84.6775 16.928 84.9335 16.928C85.0935 16.928 85.3255 16.872 85.6295 16.76C86.2695 16.536 86.9495 16.424 87.6695 16.424C88.6135 16.424 89.3495 16.592 89.8775 16.928C90.4215 17.248 90.6935 17.736 90.6935 18.392C90.6935 18.92 90.4455 19.408 89.9495 19.856C89.4535 20.288 88.7815 20.608 87.9335 20.816ZM102.836 22.856C103.956 23.032 104.796 23.44 105.356 24.08C105.932 24.72 106.22 25.456 106.22 26.288C106.22 27.04 105.948 27.808 105.404 28.592C104.876 29.376 104.052 30.112 102.932 30.8C101.828 31.504 100.452 32.104 98.8038 32.6C98.7398 32.616 98.6838 32.584 98.6358 32.504C98.6038 32.424 98.6198 32.368 98.6838 32.336C100.428 31.632 101.684 30.752 102.452 29.696C103.22 28.656 103.604 27.624 103.604 26.6C103.604 25.656 103.364 24.904 102.884 24.344C102.404 23.768 101.756 23.48 100.94 23.48C100.62 23.48 100.292 23.528 99.9558 23.624C99.9078 23.64 99.8678 23.6 99.8358 23.504C99.8038 23.408 99.8118 23.352 99.8598 23.336C100.98 23.048 101.796 22.616 102.308 22.04C102.82 21.448 103.076 20.624 103.076 19.568C103.076 18.768 102.956 18.16 102.716 17.744C102.476 17.312 102.124 17.096 101.66 17.096C100.988 17.096 100.372 17.328 99.8118 17.792C99.2678 18.256 98.8198 18.928 98.4678 19.808C98.4678 19.824 98.4358 19.832 98.3718 19.832C98.2278 19.832 98.1638 19.8 98.1798 19.736L99.0678 16.232C99.0998 16.2 99.1318 16.184 99.1638 16.184C99.2118 16.184 99.2598 16.2 99.3078 16.232C99.3558 16.248 99.3718 16.264 99.3558 16.28C99.3238 16.408 99.3078 16.496 99.3078 16.544C99.3078 16.816 99.4438 16.952 99.7158 16.952C99.9078 16.952 100.18 16.888 100.532 16.76C100.916 16.648 101.244 16.568 101.516 16.52C101.788 16.456 102.1 16.424 102.452 16.424C103.412 16.424 104.156 16.696 104.684 17.24C105.228 17.768 105.5 18.408 105.5 19.16C105.5 19.928 105.26 20.656 104.78 21.344C104.316 22.016 103.668 22.52 102.836 22.856Z" fill="white"/>
</svg>
